<?xml version="1.0" encoding="utf-8"?>
<!-- Generator: Adobe Illustrator 25.4.1, SVG Export Plug-In . SVG Version: 6.00 Build 0)  -->
<svg version="1.1" id="Layer_1" xmlns="http://www.w3.org/2000/svg" xmlns:xlink="http://www.w3.org/1999/xlink" x="0px" y="0px"
	 viewBox="0 0 481.7 481.7" style="enable-background:new 0 0 481.7 481.7;" xml:space="preserve">
<g>
	<g>
		<g>
			<rect y="192.7" style="fill:#424242;" width="19.3" height="96.3"/>
		</g>
		<g>
			<rect x="38.5" y="192.7" style="fill:#424242;" width="19.3" height="96.3"/>
		</g>
		<g>
			<rect x="423.9" y="192.7" style="fill:#424242;" width="19.3" height="96.3"/>
		</g>
		<g>
			<rect x="462.4" y="192.7" style="fill:#424242;" width="19.3" height="96.3"/>
		</g>
		<g>
			<polyline style="fill:#424242;" points="289,0 289,19.3 192.7,19.3 192.7,0 			"/>
		</g>
		<g>
			<rect x="192.7" y="38.5" style="fill:#424242;" width="96.3" height="19.3"/>
		</g>
		<g>
			<rect x="192.7" y="423.9" style="fill:#424242;" width="96.3" height="19.3"/>
		</g>
		<g>
			<rect x="192.7" y="462.4" style="fill:#424242;" width="96.3" height="19.3"/>
		</g>
		<g>
			<rect y="192.7" style="fill:#424242;" width="19.3" height="96.3"/>
		</g>
		<g>
			<rect x="38.5" y="192.7" style="fill:#424242;" width="19.3" height="96.3"/>
		</g>
		<g>
			<rect x="423.9" y="192.7" style="fill:#424242;" width="19.3" height="96.3"/>
		</g>
		<g>
			<rect x="462.4" y="192.7" style="fill:#424242;" width="19.3" height="96.3"/>
		</g>
		<g>
			<polyline style="fill:#424242;" points="289,0 289,19.3 192.7,19.3 192.7,0 			"/>
		</g>
		<g>
			<rect x="192.7" y="38.5" style="fill:#424242;" width="96.3" height="19.3"/>
		</g>
		<g>
			<rect x="192.7" y="423.9" style="fill:#424242;" width="96.3" height="19.3"/>
		</g>
		<g>
			<rect x="192.7" y="462.4" style="fill:#424242;" width="96.3" height="19.3"/>
		</g>
		<g>
			
				<rect x="29.2" y="67.7" transform="matrix(0.7071 -0.7071 0.7071 0.7071 -32.0394 77.3504)" style="fill:#424242;" width="96.3" height="19.3"/>
		</g>
		<g>
			
				<rect x="56.4" y="95" transform="matrix(0.7071 -0.7072 0.7072 0.7071 -43.3259 104.6078)" style="fill:#424242;" width="96.3" height="19.3"/>
		</g>
		<g>
			
				<rect x="328.9" y="367.4" transform="matrix(0.7071 -0.7071 0.7071 0.7071 -156.1875 377.0683)" style="fill:#424242;" width="96.3" height="19.3"/>
		</g>
		<g>
			
				<rect x="356.2" y="394.7" transform="matrix(0.7071 -0.7071 0.7071 0.7071 -167.4736 404.3178)" style="fill:#424242;" width="96.3" height="19.3"/>
		</g>
		<g>
			
				<rect x="394.7" y="29.2" transform="matrix(0.7071 -0.7071 0.7071 0.7071 63.7274 308.5519)" style="fill:#424242;" width="19.3" height="96.3"/>
		</g>
		<g>
			
				<rect x="367.4" y="56.4" transform="matrix(0.7071 -0.7071 0.7071 0.7071 36.4803 297.2658)" style="fill:#424242;" width="19.3" height="96.3"/>
		</g>
		<g>
			
				<rect x="95" y="328.9" transform="matrix(0.7072 -0.7071 0.7071 0.7072 -235.9795 184.3791)" style="fill:#424242;" width="19.3" height="96.3"/>
		</g>
		<g>
			
				<rect x="67.7" y="356.2" transform="matrix(0.7071 -0.7071 0.7071 0.7071 -263.2407 173.1177)" style="fill:#424242;" width="19.3" height="96.3"/>
		</g>
		<g>
			
				<rect x="29.2" y="67.7" transform="matrix(0.7071 -0.7071 0.7071 0.7071 -32.0394 77.3504)" style="fill:#424242;" width="96.3" height="19.3"/>
		</g>
		<g>
			
				<rect x="56.4" y="95" transform="matrix(0.7071 -0.7072 0.7072 0.7071 -43.3259 104.6078)" style="fill:#424242;" width="96.3" height="19.3"/>
		</g>
		<g>
			
				<rect x="328.9" y="367.4" transform="matrix(0.7071 -0.7071 0.7071 0.7071 -156.1875 377.0683)" style="fill:#424242;" width="96.3" height="19.3"/>
		</g>
		<g>
			
				<rect x="356.2" y="394.7" transform="matrix(0.7071 -0.7071 0.7071 0.7071 -167.4736 404.3178)" style="fill:#424242;" width="96.3" height="19.3"/>
		</g>
		<g>
			
				<rect x="394.7" y="29.2" transform="matrix(0.7071 -0.7071 0.7071 0.7071 63.7274 308.5519)" style="fill:#424242;" width="19.3" height="96.3"/>
		</g>
		<g>
			
				<rect x="367.4" y="56.4" transform="matrix(0.7071 -0.7071 0.7071 0.7071 36.4803 297.2658)" style="fill:#424242;" width="19.3" height="96.3"/>
		</g>
		<g>
			
				<rect x="95" y="328.9" transform="matrix(0.7072 -0.7071 0.7071 0.7072 -235.9795 184.3791)" style="fill:#424242;" width="19.3" height="96.3"/>
		</g>
		<g>
			
				<rect x="67.7" y="356.2" transform="matrix(0.7071 -0.7071 0.7071 0.7071 -263.2407 173.1177)" style="fill:#424242;" width="19.3" height="96.3"/>
		</g>
	</g>
</g>
</svg>
